# xmcd
#
# Track frame offsets:
#	150
#	17389
#	31460
#	50092
#	66036
#	83884
#	99283
#	112874
#	126994
#	140538
#	157123
#
# Disc length: 2385 seconds
#
# Revision: 0
# Processed by: cddbd v1.5.2PL0 Copyright (c) Steve Scherf et al.
# Submitted via: audiograbber 1.83.01
#
DISCID=8c094f0b
DTITLE=Josh_Turner - Your_Man
DYEAR=2006
DGENRE=Country
TTITLE0=Would You Go with Me
TTITLE1=Baby's Gone Home to Mama
TTITLE2=No Rush
TTITLE3=Your Man
TTITLE4=Loretta Lynn's Lincoln
TTITLE5=White Noise
TTITLE6=Angels Fall Sometimes
TTITLE7=Lord Have Mercy on a Country Boy
TTITLE8=Me and God
TTITLE9=Gravity
TTITLE10=Way Down South
EXTD=
EXTT0=
EXTT1=
EXTT2=
EXTT3=
EXTT4=
EXTT5=
EXTT6=
EXTT7=
EXTT8=
EXTT9=
EXTT10=
PLAYORDER=
